<svg width="32" height="32" viewBox="0 0 32 32" fill="none" xmlns="http://www.w3.org/2000/svg">
<path d="M6.4 20H8.53333C9.712 20 10.6667 19.1039 10.6667 17.9999V16C10.6667 14.895 9.712 14 8.53333 14H6.4C5.22133 14 4.26667 14.895 4.26667 16V17.9999C4.26667 19.1039 5.22133 20 6.4 20ZM6.4 16H8.53333V17.9999H6.4V16ZM23.4667 27.9999H25.6C26.7787 27.9999 27.7334 27.1049 27.7334 26V24C27.7334 22.895 26.7787 22 25.6 22H23.4667C22.2891 22 21.3333 22.895 21.3333 24V26C21.3333 27.1049 22.288 27.9999 23.4667 27.9999ZM23.4667 24H25.6V26H23.4667V24ZM23.4667 20H25.6C26.7787 20 27.7334 19.1039 27.7334 17.9999V16C27.7334 14.895 26.7787 14 25.6 14H23.4667C22.2891 14 21.3333 14.895 21.3333 16V17.9999C21.3333 19.1039 22.288 20 23.4667 20ZM23.4667 16H25.6V17.9999H23.4667V16ZM27.7334 2H23.4667V0.999998C23.4667 0.447989 22.9888 0 22.4001 0C21.8113 0 21.3334 0.447989 21.3334 0.999998V2H10.6667V0.999998C10.6667 0.447989 10.1888 0 9.6 0C9.01119 0 8.53333 0.447989 8.53333 0.999998V2H4.26667C1.91043 2 0 3.79102 0 5.99999V27.9999C0 30.2089 1.91043 32 4.26667 32H27.7333C30.0896 32 32 30.209 32 27.9999V5.99999C32 3.79097 30.0896 2 27.7334 2ZM29.8667 27.9999C29.8667 29.105 28.9121 30 27.7334 30H4.26667C3.088 30 2.13333 29.1039 2.13333 27.9999V9.99998H29.8667V27.9999H29.8667ZM29.8667 7.99999H2.13333V5.99999C2.13333 4.89499 3.088 3.99999 4.26667 3.99999H8.53333V4.99999C8.53333 5.552 9.01119 5.99999 9.6 5.99999C10.1888 5.99999 10.6667 5.552 10.6667 4.99999V3.99999H21.3333V4.99999C21.3333 5.552 21.8112 5.99999 22.4 5.99999C22.9888 5.99999 23.4667 5.552 23.4667 4.99999V3.99999H27.7334C28.9121 3.99999 29.8667 4.89499 29.8667 5.99999V7.99999ZM14.9333 27.9999H17.0667C18.2453 27.9999 19.2 27.1049 19.2 26V24C19.2 22.895 18.2453 22 17.0667 22H14.9333C13.7558 22 12.8 22.895 12.8 24V26C12.8 27.1049 13.7547 27.9999 14.9333 27.9999ZM14.9333 24H17.0667V26H14.9333V24ZM14.9333 20H17.0667C18.2453 20 19.2 19.1039 19.2 17.9999V16C19.2 14.895 18.2453 14 17.0667 14H14.9333C13.7558 14 12.8 14.895 12.8 16V17.9999C12.8 19.1039 13.7547 20 14.9333 20ZM14.9333 16H17.0667V17.9999H14.9333V16ZM6.4 27.9999H8.53333C9.712 27.9999 10.6667 27.1049 10.6667 26V24C10.6667 22.895 9.712 22 8.53333 22H6.4C5.22133 22 4.26667 22.895 4.26667 24V26C4.26667 27.1049 5.22133 27.9999 6.4 27.9999ZM6.4 24H8.53333V26H6.4V24Z" fill="#F4D35E"/>
</svg>
