<svg width="24" height="24" viewBox="0 0 24 24" fill="none" xmlns="http://www.w3.org/2000/svg">
<path d="M4.92308 5.90387C6.79049 4.0794 9.66902 4.10486 11.3783 5.88622C11.5204 6.03424 11.7154 6.11933 11.9202 6.12264C12.125 6.12596 12.3227 6.04722 12.4694 5.90387C14.3268 4.08919 17.2195 4.08919 19.0769 5.90387C20.9335 7.71772 20.9067 10.495 19.0949 12.1545C19.0888 12.1601 19.0828 12.1658 19.0769 12.1716L11.9374 19.1469L4.92796 12.1763L4.92308 12.1716C3.06654 10.3577 3.09331 7.58038 4.90506 5.92092C4.91116 5.91534 4.91717 5.90965 4.92308 5.90387Z" fill="#F95738" style="mix-blend-mode:darken"/>
<path fill-rule="evenodd" clip-rule="evenodd" d="M11.9465 4.31813C9.59468 2.40387 6.12292 2.58601 3.85838 4.79012C1.36802 7.08049 1.39686 10.8778 3.84702 13.2742L3.84952 13.2767L7.62025 17.0265L11.391 20.7763C11.689 21.0727 12.1688 21.0748 12.4694 20.7811L20.1419 13.2851C22.6328 10.9939 22.603 7.19491 20.1505 4.79876C17.8724 2.57305 14.397 2.41284 11.9465 4.31813ZM11.3783 5.88622C9.66902 4.10486 6.79049 4.0794 4.92308 5.90387C4.91717 5.90965 4.91116 5.91534 4.90506 5.92092C3.09331 7.58038 3.06654 10.3577 4.92308 12.1716L4.92796 12.1763L11.9374 19.1469L19.0769 12.1716C19.0828 12.1658 19.0888 12.1601 19.0949 12.1545C20.9067 10.495 20.9335 7.71772 19.0769 5.90387C17.2195 4.08919 14.3268 4.08919 12.4694 5.90387C12.3227 6.04722 12.125 6.12596 11.9202 6.12264C11.7154 6.11933 11.5204 6.03424 11.3783 5.88622Z" fill="#C42F12" style="mix-blend-mode:darken"/>
</svg>
